# xmcd CD database file
#
# Track frame offsets:
#	150
#	14375
#	31135
#	43020
#	56790
#	69002
#	83712
#	97440
#	111222
#	123027
#	136200
#	150282
#	163950
#	178580
#	192709
#	205300
#	220387
#	234290
#	248985
#	261840
#	275002
#	290052
#	303017
#	314375
#
# Disc length: 4382 seconds
#
# Revision: 0
# Processed by: cddbd v1.5.2PL0 Copyright (c) Steve Scherf et al.
# Submitted via: CDex 1.99.1
#
DISCID=5e111c18
DTITLE=Roosevelt Sykes - Roosevelt Sykes Complete Recorded Works Vol 8
DYEAR=1900
DGENRE=Blues
TTITLE0=I Wonder
TTITLE1=Tender Hearted Woman
TTITLE2=This Tavern Boogie
TTITLE3=Don't Push Me Around
TTITLE4=Little Sam
TTITLE5=Anytime Is The Right Time
TTITLE6=The Honeydripper
TTITLE7=Date Bait
TTITLE8=High Price Blues
TTITLE9=Peeping Tom
TTITLE10=That's My Gal
TTITLE11=Tonight
TTITLE12=Living In A Different World
TTITLE13=Sunny Road
TTITLE14=Her Little Machine
TTITLE15=Flame Of Jive
TTITLE16=Sneakin' And Dodgin'
TTITLE17=Bop De Bip
TTITLE18=Bobby Sox Blues
TTITLE19=Kilroy's In Town
TTITLE20=BVD Blues
TTITLE21=I'm Her Honeydripper
TTITLE22=Mama, Mama
TTITLE23=Walkin' And Drinkin'
EXTD=
EXTT0=
EXTT1=
EXTT2=
EXTT3=
EXTT4=
EXTT5=
EXTT6=
EXTT7=
EXTT8=
EXTT9=
EXTT10=
EXTT11=
EXTT12=
EXTT13=
EXTT14=
EXTT15=
EXTT16=
EXTT17=
EXTT18=
EXTT19=
EXTT20=
EXTT21=
EXTT22=
EXTT23=
PLAYORDER=
